# xmcd CD database file
#
# Track frame offsets:
#	150
#	29602
#	55934
#	89666
#	120176
#	144869
#	180148
#	197959
#	232927
#	260028
#	275319
#	298923
#	326163
#
# Disc length: 4671 seconds
#
# Revision: 0
# Processed by: cddbd v1.5.2PL0 Copyright (c) Steve Scherf et al.
# Submitted via: CDex 1.51
#
DISCID=bd123d0d
DTITLE=Jazz Émotions - Fusions
DYEAR=2009
DGENRE=Jazz
TTITLE0=Herbie Hancock - Watermelon Man
TTITLE1=The Brecker Brothers - Some Skunk Funk
TTITLE2=Shakti with John McLaughlin - Lady L
TTITLE3=Yusef Lateef - Love Dance
TTITLE4=Aziza Mustaka Zadeh - Ay Dilber
TTITLE5=Dusko Gojkovix - Slavic Mood
TTITLE6=Paolo Fresu - Accarezzame
TTITLE7=Gati barbieri - Bolivia
TTITLE8=Weather Report - Birdland
TTITLE9=Mahavishnu Orchestra - Thousand Island park
TTITLE10=Al Di meola - mediterranean Sundance
TTITLE11=The Bad Plus - Smells Like Teen Spirits
TTITLE12=Stan Getz - Ligia
EXTD=YEAR: 2009
EXTT0=
EXTT1=
EXTT2=
EXTT3=
EXTT4=
EXTT5=
EXTT6=
EXTT7=
EXTT8=
EXTT9=
EXTT10=
EXTT11=
EXTT12=
PLAYORDER=
